<?xml version="1.0" standalone="no"?>
<!DOCTYPE svg PUBLIC "-//W3C//DTD SVG 20010904//EN"
 "http://www.w3.org/TR/2001/REC-SVG-20010904/DTD/svg10.dtd">
<svg version="1.0" xmlns="http://www.w3.org/2000/svg"
 width="1000.000000pt" height="1000.000000pt" viewBox="0 0 1000.000000 1000.000000"
 preserveAspectRatio="xMidYMid meet">
<metadata>
Created by potrace 1.15, written by Peter Selinger 2001-2017
</metadata>
<g transform="translate(0.000000,1000.000000) scale(0.100000,-0.100000)"
fill="#000000" stroke="none">
<path d="M1926 8074 l-26 -27 0 -418 0 -419 -302 0 c-167 0 -320 -3 -340 -6
-57 -10 -88 -46 -88 -104 0 -38 5 -53 26 -74 l27 -26 338 0 339 0 0 -955 0
-955 -302 0 c-167 0 -320 -3 -340 -6 -57 -10 -88 -46 -88 -104 0 -38 5 -53 26
-74 l27 -26 338 0 339 0 0 -955 0 -955 -302 0 c-167 0 -320 -3 -340 -6 -57
-10 -88 -46 -88 -104 0 -38 5 -53 26 -74 l27 -26 338 0 339 0 0 -404 0 -403
26 -27 27 -26 3047 0 3047 0 27 26 26 27 0 413 0 414 303 0 c166 0 319 3 339
6 57 10 88 46 88 104 0 38 -5 53 -26 74 l-27 26 -338 0 -339 0 0 955 0 955
303 0 c166 0 319 3 339 6 57 10 88 46 88 104 0 38 -5 53 -26 74 l-27 26 -338
0 -339 0 0 955 0 955 303 0 c166 0 319 3 339 6 57 10 88 46 88 104 0 38 -5 53
-26 74 l-27 26 -338 0 -339 0 0 409 0 408 -26 27 -27 26 -3047 0 -3047 0 -27
-26z m5974 -3074 l0 -2900 -2900 0 -2900 0 0 2900 0 2900 2900 0 2900 0 0
-2900z"/>
</g>
</svg>
